<mxfile host="app.diagrams.net" modified="2021-09-27T11:48:49.781Z" agent="5.0 (Linux; Android 11) AppleWebKit/537.36 (KHTML, like Gecko) Chrome/93.0.4577.82 Mobile Safari/537.36" etag="g1CogipkQOUBd9APrRTf" version="15.3.5" type="github">
  <diagram id="ApouTgoWpGvDzLE1eD2K" name="Page-1">
    <mxGraphModel dx="359" dy="284" grid="0" gridSize="10" guides="1" tooltips="1" connect="1" arrows="1" fold="1" page="0" pageScale="1" pageWidth="827" pageHeight="1169" math="0" shadow="0">
      <root>
        <mxCell id="0" />
        <mxCell id="1" parent="0" />
        <mxCell id="x2wXeCVDzd99boEbPaVI-1" value="Text" style="text;html=1;align=center;verticalAlign=middle;resizable=0;points=[];autosize=1;strokeColor=none;sketch=1;hachureGap=4;pointerEvents=0;fontFamily=Architects Daughter;fontSource=https%3A%2F%2Ffonts.googleapis.com%2Fcss%3Ffamily%3DArchitects%2BDaughter;fontSize=18;" vertex="1" parent="1">
          <mxGeometry x="184" y="403" width="40" height="20" as="geometry" />
        </mxCell>
      </root>
    </mxGraphModel>
  </diagram>
</mxfile>
